<svg xmlns="http://www.w3.org/2000/svg" viewBox="0 0 900 1080" width="900" height="1080" role="img">
  <rect width="900" height="1080" fill="#FFF9F5"/>
  <path d="M806.1,749.6 Q748.7,913.9 584.4,1018.3 Q420.0,1122.7 262.3,1011.7 Q104.5,900.7 35.0,742.9 Q-34.6,585.2 26.4,418.9 Q87.4,252.6 253.7,223.8 Q420.0,195.0 581.0,229.1 Q742.0,263.2 802.7,424.2 Q863.5,585.2 806.1,749.6 Z" fill="#F6D6DF" opacity="0.85"/>
  <path d="M740.7,692.2 Q720.9,838.5 574.6,871.3 Q428.4,904.1 309.9,843.4 Q191.5,782.8 117.7,664.4 Q43.8,545.9 99.9,409.7 Q155.9,273.5 292.1,218.3 Q428.4,163.1 562.4,220.4 Q696.5,277.8 728.5,411.9 Q760.5,545.9 740.7,692.2 Z" fill="#DCCEF2" opacity="0.55"/>
  <path d="M603.8,714.8 Q582.9,880.5 417.1,941.9 Q251.3,1003.4 129.3,898.2 Q7.3,793.0 -100.3,671.0 Q-207.9,549.0 -126.2,401.1 Q-44.5,253.1 103.4,243.4 Q251.3,233.8 418.7,224.0 Q586.1,214.3 605.4,381.6 Q624.7,549.0 603.8,714.8 Z" fill="#F8E7A9" opacity="0.45"/>
  <line x1="0" y1="846.0" x2="900" y2="846.0" stroke="#302B32" stroke-width="3.6" opacity=".13"/>
  <ellipse cx="450.0" cy="846.0" rx="270.0" ry="23.4" fill="#302B32" opacity=".07"/>
  <path d="M310.5,846.0 C315.0,661.5 342.0,634.5 373.5,634.5 L526.5,634.5 C558.0,634.5 585.0,661.5 589.5,846.0 Z" fill="#B86F89" opacity=".62"/>
  <circle cx="450.0" cy="491.3" r="166.5" fill="#B86F89" opacity=".62"/>
  <path d="M358.4,414.7 C416.7,384.8 483.3,384.8 541.6,414.7" fill="none" stroke="#FFF9F5" stroke-width="10.8" stroke-linecap="round" opacity=".55"/>
  <path d="M72,972 C198,907 306,1026 414,961" fill="none" stroke="#59446F" stroke-width="5.4" stroke-linecap="round" opacity=".22"/>
  <circle cx="774" cy="130" r="16.2" fill="#F8E7A9"/>
  <text x="54" y="1031" font-family="Manrope, system-ui, sans-serif" font-size="32" fill="#302B32" opacity=".45" letter-spacing="1.9">peça no ateliê</text>
</svg>
