<svg xmlns="http://www.w3.org/2000/svg" viewBox="0 0 900 700" width="900" height="700" role="img">
  <rect width="900" height="700" fill="#FDF3F6"/>
  <path d="M413.6,662.1 Q418.1,794.0 286.2,838.4 Q154.2,882.7 64.8,795.9 Q-24.7,709.1 -99.3,619.6 Q-174.0,530.1 -110.4,429.6 Q-46.8,329.1 53.7,242.1 Q154.2,155.0 285.5,211.3 Q416.7,267.7 412.9,398.9 Q409.1,530.1 413.6,662.1 Z" fill="#F6D6DF" opacity="0.8"/>
  <path d="M345.7,449.8 Q296.8,525.0 221.6,597.7 Q146.3,670.4 53.8,614.9 Q-38.6,559.3 -74.4,466.9 Q-110.2,374.5 -86.1,270.3 Q-62.0,166.2 42.1,169.1 Q146.3,172.1 244.7,174.8 Q343.2,177.5 368.9,276.0 Q394.6,374.5 345.7,449.8 Z" fill="#F8E7A9" opacity="0.3"/>
  <line x1="0" y1="588.0" x2="900" y2="588.0" stroke="#302B32" stroke-width="2.8" opacity=".13"/>
  <ellipse cx="450.0" cy="588.0" rx="210.0" ry="18.2" fill="#302B32" opacity=".07"/>
  <path d="M253.9,588.0 C256.6,467.5 274.8,449.8 295.0,449.8 L395.0,449.8 C415.2,449.8 433.4,467.5 436.1,588.0 Z" fill="#B86F89" opacity=".50"/>
  <circle cx="345.0" cy="356.3" r="108.8" fill="#B86F89" opacity=".50"/>
  <path d="M285.2,306.2 C323.2,286.6 366.8,286.6 404.8,306.2" fill="none" stroke="#FFF9F5" stroke-width="7.1" stroke-linecap="round" opacity=".55"/>
  <path d="M453.0,588.0 C456.1,453.1 476.5,433.4 499.1,433.4 L610.9,433.4 C633.5,433.4 653.9,453.1 657.0,588.0 Z" fill="#B86F89" opacity=".66"/>
  <circle cx="555.0" cy="328.7" r="121.7" fill="#B86F89" opacity=".66"/>
  <path d="M488.0,272.7 C530.7,250.8 579.3,250.8 622.0,272.7" fill="none" stroke="#FFF9F5" stroke-width="7.9" stroke-linecap="round" opacity=".55"/>
  <path d="M450.0,276.6 C407.4,246.4 433.2,218.4 450.0,241.9 C466.8,218.4 492.6,246.4 450.0,276.6 Z" fill="#F8E7A9"/>
  <path d="M72,630 C198,588 306,665 414,623" fill="none" stroke="#59446F" stroke-width="4.2" stroke-linecap="round" opacity=".22"/>
  <circle cx="774" cy="84" r="12.6" fill="#F8E7A9"/>
  <text x="54" y="668" font-family="Manrope, system-ui, sans-serif" font-size="25" fill="#302B32" opacity=".45" letter-spacing="1.5">Pop de casal</text>
</svg>
